<svg xmlns="http://www.w3.org/2000/svg" xmlns:xlink="http://www.w3.org/1999/xlink" width="500" zoomAndPan="magnify" viewBox="0 0 375 374.999991" height="500" preserveAspectRatio="xMidYMid meet" version="1.0"><defs><clipPath id="b8d2dfa0eb"><path d="M 187.5 0 L 337.5 0 L 337.5 250.5 L 187.5 250.5 Z M 187.5 0 " clip-rule="nonzero"/></clipPath><clipPath id="1fc85f9d60"><path d="M 37.5 124.488281 L 187.5 124.488281 L 187.5 374.988281 L 37.5 374.988281 Z M 37.5 124.488281 " clip-rule="nonzero"/></clipPath><clipPath id="a074e26c80"><path d="M 131.25 125.261719 L 243.75 125.261719 L 243.75 249.738281 L 131.25 249.738281 Z M 131.25 125.261719 " clip-rule="nonzero"/></clipPath></defs><g clip-path="url(#b8d2dfa0eb)"><path fill="#ffc300" d="M 187.496094 0.105469 L 187.527344 125.25 L 187.5625 250.394531 C 237.542969 250.320312 287.523438 250.246094 337.5 250.171875 C 287.5 166.816406 237.496094 83.460938 187.496094 0.105469 " fill-opacity="1" fill-rule="nonzero"/></g><g clip-path="url(#1fc85f9d60)"><path fill="#ffc300" d="M 187.503906 374.882812 L 187.472656 249.738281 L 187.4375 124.597656 C 137.457031 124.671875 87.476562 124.742188 37.5 124.816406 C 87.5 208.171875 137.503906 291.527344 187.503906 374.882812 " fill-opacity="1" fill-rule="nonzero"/></g><g clip-path="url(#a074e26c80)"><path fill="#ffc300" d="M 131.25 125.261719 L 243.75 125.261719 L 243.75 249.625 L 131.25 249.625 Z M 131.25 125.261719 " fill-opacity="1" fill-rule="nonzero"/></g></svg>